<?xml version="1.0" standalone="no"?>
<!DOCTYPE svg PUBLIC "-//W3C//DTD SVG 20010904//EN"
 "http://www.w3.org/TR/2001/REC-SVG-20010904/DTD/svg10.dtd">
<svg version="1.0" xmlns="http://www.w3.org/2000/svg"
 width="160.000000pt" height="160.000000pt" viewBox="0 0 160.000000 160.000000"
 preserveAspectRatio="xMidYMid meet">
<metadata>
Created by potrace 1.11, written by Peter Selinger 2001-2013
</metadata>
<g transform="translate(0.000000,160.000000) scale(0.100000,-0.100000)"
fill="#000000" stroke="none">
<path d="M750 1473 c-108 -13 -191 -39 -290 -91 -86 -45 -142 -91 -215 -174
-123 -140 -166 -246 -189 -462 -2 -16 0 -47 5 -70 4 -22 10 -56 12 -74 3 -18
19 -63 37 -100 45 -97 107 -174 203 -255 51 -43 252 -135 332 -152 11 -2 31
-7 45 -11 56 -14 234 -3 272 17 10 5 18 8 18 5 0 -3 24 2 53 10 249 74 465
305 492 531 2 12 6 34 9 50 14 68 6 172 -19 259 -33 115 -137 275 -224 347
-75 63 -210 129 -321 158 -44 11 -170 18 -220 12z"/>
</g>
</svg>
